<?xml version="1.0" encoding="utf-8"?>
<!-- Generator: Adobe Illustrator 22.1.0, SVG Export Plug-In . SVG Version: 6.00 Build 0)  -->
<svg version="1.1" xmlns="http://www.w3.org/2000/svg" xmlns:xlink="http://www.w3.org/1999/xlink" x="0px" y="0px"
	 viewBox="0 0 500 500" style="enable-background:new 0 0 500 500;" xml:space="preserve">
<style type="text/css">
	.st0{display:none;}
	.st1{display:inline;}
	.st2{fill:#E33009;}
	.st3{fill:#FFFFFF;}
	.st4{fill:none;stroke:#E33009;stroke-width:4;stroke-linecap:round;stroke-miterlimit:10;}
</style>
<g id="sb" class="st0">
	<g class="st1">
		<rect x="-101" y="-91" width="710" height="687"/>
	</g>
</g>
<g id="Layer_2">
	<path class="st2" d="M95.5,237.4c-1,1.1-0.6,2.2,0.1,3.9c0,0,1.8,2.3,4,2l50.4,0c1.6,0,2.9-1.3,2.9-2.9c0-1.6-1.3-2.9-2.9-2.9
		l-46.7,0c5.8-5.6,18.1-16.5,33.2-23.6c19.7-9.3,73.1-8.3,73.7-8.3c1.6,0,2.9-1.2,2.9-2.8c0-1.6-1.2-2.9-2.8-2.9
		c-2.3,0-55.3-1.1-76.3,8.8C112.1,219.2,96.2,236.7,95.5,237.4z"/>
	<path class="st2" d="M265.6,407.5c-1.1,1-2.2,0.6-3.9-0.1c0,0-2.3-1.8-2-4l0-50.4c0-1.6,1.3-2.9,2.9-2.9c1.6,0,2.9,1.3,2.9,2.9
		l0,46.7c5.6-5.8,16.5-18.1,23.6-33.2c9.3-19.7,8.3-73.1,8.3-73.7c0-1.6,1.2-2.9,2.8-2.9c1.6,0,2.9,1.2,2.9,2.8
		c0,2.3,1.1,55.3-8.8,76.3C283.8,390.9,266.4,406.9,265.6,407.5z"/>
	<path class="st3" d="M475.9,120.3L255.5,340.6c-0.7,0.7-1.6,1-2.5,0.8l-27.5-4.9c-0.6-0.1-1.1-0.4-1.5-0.8c-0.6-0.6-1-1.6-0.8-2.5
		c0.3-1.6,1.8-2.6,3.3-2.3l26.1,4.6l219.3-219.3c3.5-3.5,5.8-8,6.2-12.1l7.6-87.1l-87.1,7.6c-4.1,0.4-8.6,2.6-12.1,6.2L167.5,249.6
		l6.1,27.6c0.3,1.5-0.6,3.1-2.2,3.4c-1,0.2-2-0.1-2.6-0.8c-0.4-0.4-0.7-0.9-0.8-1.4l-6.5-29.2c-0.2-0.9,0.1-2,0.8-2.6l220-220
		c4.5-4.5,10.2-7.3,15.7-7.8l90-7.8c1-0.1,1.9,0.3,2.5,1c0.7,0.6,1.1,1.5,1,2.5l-7.8,90.1C483.3,110.1,480.4,115.8,475.9,120.3z"/>
	<path class="st4" d="M179.1,325.4l-1.4-1.4c-2.7-2.7-2.7-7.2,0-9.9l68.7-68.7c2.7-2.7,7.2-2.7,9.9,0l1.4,1.4c2.7,2.7,2.7,7.2,0,9.9
		L189,325.4C186.3,328.1,181.8,328.1,179.1,325.4z"/>
	<path class="st3" d="M154.3,285.5l-48,48c-0.9,0.9-2.3,0.9-3.2,0s-0.9-2.3,0-3.2l8.1-8.1c-0.2-0.2-0.5-0.4-0.6-0.6
		c-0.1-0.2-14.2-20-36.9-18.5c-2.2,0.2-4.4,0.5-6.4,1c-0.4,0.1-0.8,0.2-1.2,0.3c-17,4.8-27.8,20.2-27.9,20.4c-0.7,1-2.1,1.3-3.2,0.6
		c-0.1-0.1-0.2-0.2-0.3-0.3c-0.8-0.8-0.9-2-0.3-2.9c0.5-0.8,11.6-16.4,29.4-21.9c0-5.7-1.4-24.8-17.1-35.8
		C29.3,252.2,5.6,259,5.4,259c-0.8,0.2-1.7,0-2.3-0.6c-0.3-0.3-0.5-0.6-0.6-1c-0.4-1.2,0.3-2.5,1.5-2.8c1.1-0.3,26-7.4,45.2,6.1
		c16.8,11.8,18.9,30.9,19.1,38.5c1.6-0.3,3.3-0.5,5-0.6c25.3-1.7,40.3,19.5,40.9,20.4c0,0,0,0,0,0l36.7-36.7c0.9-0.9,2.3-0.9,3.2,0
		C155.2,283.2,155.2,284.6,154.3,285.5z"/>
	<path class="st3" d="M242.1,495.5c-0.4-0.1-0.7-0.3-1-0.6c-0.6-0.6-0.8-1.4-0.6-2.3c0.1-0.2,6.8-23.9-5.4-41.3
		c-10.9-15.6-29.6-17.1-35.6-17.1c-5,18.7-21.5,30.3-22.3,30.9c-0.9,0.6-2.2,0.5-2.9-0.3c-0.1-0.1-0.2-0.2-0.3-0.3
		c-0.7-1-0.5-2.5,0.6-3.2c0.2-0.1,16.1-11.4,20.6-28.8c0.2-0.7,0.3-1.3,0.5-2c0.3-1.5,0.5-3.1,0.6-4.7c1.3-19-12.4-31.9-17-35.7
		l-7.3,7.3c-0.9,0.9-2.3,0.9-3.2,0c-0.9-0.9-0.9-2.3,0-3.2l48-48c0.9-0.9,2.3-0.9,3.2,0c0.9,0.9,0.9,2.3,0,3.2l-37.4,37.4
		c5.5,4.6,19.7,18.4,18.3,39.3c-0.1,1.2-0.2,2.4-0.4,3.6c7.6,0.2,26.7,2.4,38.4,19.1c13.5,19.3,6.4,44.2,6.1,45.2
		C244.6,495.1,243.3,495.8,242.1,495.5z"/>
	<path class="st3" d="M110.7,279.7c-4.2-4.2-4.2-11.2,0-15.4c4.2-4.2,11.2-4.2,15.4,0s4.2,11.2,0,15.4S115,283.9,110.7,279.7z
		 M122.9,267.5c-2.5-2.5-6.5-2.5-8.9,0c-2.5,2.5-2.5,6.5,0,8.9c2.5,2.5,6.5,2.5,8.9,0C125.3,274,125.3,270,122.9,267.5z"/>
	<path class="st3" d="M334.3,318.6c-4.2-4.2-4.2-11.2,0-15.4c4.2-4.2,11.2-4.2,15.4,0c4.2,4.2,4.2,11.2,0,15.4
		S338.6,322.8,334.3,318.6z M346.5,306.4c-2.5-2.5-6.5-2.5-8.9,0c-2.5,2.5-2.5,6.5,0,8.9c2.5,2.5,6.5,2.5,8.9,0
		C349,312.9,349,308.9,346.5,306.4z"/>
</g>
</svg>
